Doctor Who
"The Pandorica Opens"

The Doctor's friends unite to send him a terrible warning: the Pandorica - which is said to contain the most feared being in all the cosmos - is opening. What is inside, and can the Doctor stop it?

Matt Smith
Karen Gillan
Alex Kingston
Tony Curran
Bill Paterson
Ian McNeice
Chrissie Cotterill
Howard Lee
Joe Jacobs
Simon Fisher Becker
Marcus O'Donovan
Clive Wood
Christopher Ryan
David Fynn
Barnaby Edwards
Ruari Mears
Toby Haynes

Format                           : AVI
Format/Info                      : Audio Video Interleave
File size                        : 307 MiB
Duration                         : 48mn 42s
Overall bit rate                 : 882 Kbps
Writing library                  : MPlayer

Video
ID                               : 0
Format                           : MPEG-4 Visual
Format profile                   : Simple@L1
Format settings, BVOP            : No
Format settings, QPel            : No
Format settings, GMC             : No warppoints
Format settings, Matrix          : Default (H.263)
Codec ID                         : DX50
Codec ID/Hint                    : DivX 5
Duration                         : 48mn 42s
Bit rate                         : 741 Kbps
Width                            : 640 pixels
Height                           : 352 pixels
Display aspect ratio             : 16:9
Frame rate                       : 25.000 fps
Color space                      : YUV
Chroma subsampling               : 4:2:0
Bit depth                        : 8 bits
Scan type                        : Interlaced
Scan order                       : Top Field First
Bits/(Pixel*Frame)               : 0.132
Stream size                      : 258 MiB (84%)
Writing library                  : Lavc52.30.1

Audio
ID                               : 1
Format                           : MPEG Audio
Format version                   : Version 1
Format profile                   : Layer 3
Mode                             : Joint stereo
Mode extension                   : MS Stereo
Codec ID                         : 55
Codec ID/Hint                    : MP3
Duration                         : 48mn 42s
Bit rate mode                    : Constant
Bit rate                         : 128 Kbps
Channel(s)                       : 2 channels
Sampling rate                    : 44.1 KHz
Stream size                      : 44.6 MiB (15%)
Alignment                        : Aligned on interleaves
Interleave, duration             : 26 ms (0.65 video frame)
Interleave, preload duration     : 809 ms

Tested with:
Windows Media Player
Windows Media Center
VLC Media Player
Quicktime Player (with DivX Plus)
RealPlayer

Please help me seed and speed up the download for others.
Comments welcome..
Thank you	